# xmcd CD database file
#
# Track frame offsets:
#	150
#	19397
#	24351
#	38382
#	43214
#	55052
#	59940
#	73119
#	75430
#	90413
#	93625
#	112622
#	117109
#	130746
#	134038
#	155309
#	158250
#	172592
#
# Disc length: 2495 seconds
#
# Revision: 4
# Processed by: cddbd v1.5.2PL0 Copyright (c) Steve Scherf et al.
# Submitted via: CDex 1.51
#
DISCID=d809bd12
DTITLE=Alessandro Scarlatti - Venere e Amore  [Pàl Németh, Savaria Baroque Orchestra] - Gavotte
DYEAR=1900
DGENRE=Serenade
TTITLE0=Sinfonia con flauto
TTITLE1=Recitativo - Del mar Tirreno in su l'amena sponda
TTITLE2=Aria - Chi dà pace e questo core
TTITLE3=Recitativo - Qui dove altera siede
TTITLE4=Aria - Ha già vinto il moi strale fatale
TTITLE5=Recitativo - Figlio, Amor moi!
TTITLE6=Duetto - Al fuoco di Cupido
TTITLE7=Recitativo - Poiché a si nobil segno
TTITLE8=Aria - Come dal monte
TTITLE9=Recitativo - Qual mai del alma altera
TTITLE10=Aria - So ch'ella è Sole di tante stelle
TTITLE11=Recitativo - Ma dove mai trovar potesti, o caro
TTITLE12=Aria - Bastò un guardo sol
TTITLE13=Recitativo - Più degno spirto in ver tu non potevi
TTITLE14=Aria - Due bianche colombe
TTITLE15=Recitativo - Questa gentil sovrana coppia eletta
TTITLE16=Duetto - A coppia si bella
TTITLE17=Gavotte  . . . . . . . . . . . .  [John Williams, guitare]
EXTD=
EXTT0=
EXTT1=
EXTT2=
EXTT3=
EXTT4=
EXTT5=
EXTT6=
EXTT7=
EXTT8=
EXTT9=
EXTT10=
EXTT11=
EXTT12=
EXTT13=
EXTT14=
EXTT15=
EXTT16=
EXTT17=
PLAYORDER=
